<svg xmlns="http://www.w3.org/2000/svg" viewBox="0 0 24 24" fill="#FF9900">
  <path d="M6.763 10.036c0 .296.032.535.088.71.064.176.144.368.256.576.04.063.056.127.056.183 0 .08-.048.16-.152.24l-.503.335c-.072.048-.144.072-.208.072-.08 0-.16-.04-.239-.112-.112-.12-.207-.248-.279-.384-.072-.135-.144-.296-.224-.495-.56.66-1.263.99-2.111.99-.6 0-1.087-.17-1.448-.51-.36-.34-.543-.8-.543-1.376 0-.608.215-1.097.647-1.465.432-.368 1.007-.552 1.727-.552.24 0 .487.016.743.056.255.04.52.088.791.16v-.535c0-.56-.12-.95-.36-1.177-.24-.224-.647-.336-1.215-.336-.264 0-.535.032-.815.088-.279.056-.551.127-.815.224-.12.048-.207.08-.263.096-.056.016-.096.024-.12.024-.104 0-.16-.08-.16-.232v-.368c0-.12.016-.208.056-.264.04-.056.112-.112.207-.16.264-.136.583-.248.959-.336.375-.088.775-.128 1.199-.128.92 0 1.591.208 2.023.624.424.416.64 1.048.64 1.896v2.527zm-2.895 1.087c.231 0 .471-.04.727-.128.255-.088.48-.24.671-.44.12-.127.207-.272.247-.44.04-.167.064-.36.064-.583v-.28c-.208-.064-.423-.112-.647-.144-.224-.032-.44-.048-.655-.048-.464 0-.8.088-1.015.272-.216.184-.32.44-.32.775 0 .319.08.56.247.727.167.168.423.248.68.248zm5.447.72c-.136 0-.231-.024-.279-.08-.048-.056-.088-.16-.12-.296l-1.335-4.407c-.032-.104-.048-.176-.048-.216 0-.088.04-.136.128-.136h.527c.144 0 .24.024.287.08.048.056.088.16.12.296l.959 3.775 1.887-3.775c.032-.136.072-.24.12-.296.048-.056.151-.08.295-.08h.431c.144 0 .247.024.295.08.048.056.088.16.12.296l1.903 3.823.983-3.823c.032-.136.072-.24.12-.296.048-.056.144-.08.279-.08h.503c.088 0 .136.04.136.136 0 .032-.008.064-.016.104-.008.04-.024.088-.048.152l-1.367 4.407c-.032.136-.072.24-.12.296-.048.056-.144.08-.287.08h-.463c-.144 0-.247-.024-.295-.08-.048-.056-.088-.16-.12-.296l-1.879-3.735-1.863 3.735c-.032.136-.072.24-.12.296-.048.056-.151.08-.295.08h-.463zm7.815.08c-.568 0-1.135-.064-1.695-.2-.56-.135-1.007-.296-1.335-.48-.12-.064-.2-.136-.231-.2-.032-.064-.048-.136-.048-.2v-.384c0-.152.056-.232.16-.232.04 0 .08.008.12.024.04.016.104.048.183.08.279.128.583.232.911.296.328.064.655.096.983.096.52 0 .927-.088 1.215-.272.287-.184.431-.44.431-.775 0-.232-.072-.424-.216-.583-.144-.16-.416-.304-.815-.44l-1.167-.368c-.583-.184-1.015-.456-1.279-.815-.264-.36-.4-.775-.4-1.248 0-.36.08-.679.231-.959.152-.279.36-.52.624-.71.264-.2.575-.344.935-.44.36-.096.735-.144 1.127-.144.248 0 .503.016.759.056.255.04.495.088.719.144.216.056.415.12.583.2.167.08.295.16.375.248.08.088.136.184.167.288.032.104.048.224.048.36v.352c0 .152-.056.232-.16.232-.056 0-.151-.024-.279-.08-.415-.2-.879-.296-1.391-.296-.471 0-.839.08-1.103.248-.264.167-.4.416-.4.743 0 .232.08.432.24.583.16.152.447.304.863.44l1.143.368c.575.184.999.44 1.271.775.272.336.407.735.407 1.2 0 .375-.08.711-.231 1.007-.152.296-.368.544-.647.735-.279.2-.615.344-1.007.44-.391.096-.815.144-1.271.144z"/>
</svg>